<svg width="430" height="430" viewBox="0 0 430 430" fill="none" xmlns="http://www.w3.org/2000/svg">
<path d="M219.054 48.3L257.954 168.2C258.554 170.2 260.454 171.5 262.454 171.5H317.154H388.554C393.154 171.5 395.054 177.4 391.354 180.1L341.054 216.7L289.454 254.2C287.754 255.4 287.054 257.6 287.754 259.5L302.454 304.8L326.654 379.4C328.054 383.8 323.054 387.4 319.354 384.7L271.754 350.1L217.454 310.6C215.754 309.4 213.554 309.4 211.854 310.6L163.354 345.9L109.954 384.7C106.254 387.4 101.154 383.8 102.654 379.4L124.854 311.2L141.654 259.5C142.254 257.5 141.554 255.4 139.954 254.2L87.1543 215.8L37.9543 180.1C34.2543 177.4 36.1543 171.5 40.7543 171.5H107.854H166.554C168.654 171.5 170.454 170.2 171.054 168.2L210.054 48.3C211.454 43.9 217.654 43.9 219.054 48.3Z" stroke="#121331" stroke-width="12" stroke-miterlimit="15.2" stroke-linecap="round" stroke-linejoin="round"/>
</svg>
