<svg width="192" height="192" viewBox="0 0 192 192" fill="none" xmlns="http://www.w3.org/2000/svg" data-name="doodle-color-27-cv-curriculum-vitae-resume" data-features="stroke" data-colors="primary:#17171c,secondary:#3583ff,tertiary:#a1ccfa"><g><g clip-path="url(#clip0_1313_5138)"><g clip-path="url(#clip1_1313_5138)"><path fill-rule="evenodd" clip-rule="evenodd" d="M129.737 40.3179C129.811 40.3118 128.801 38.8928 128.902 37.6751C129.142 34.819 129.963 30.4477 129.128 27.0646C127.727 21.3877 123.297 19.9667 123.611 20.0001C133.54 21.0519 148.295 37.2787 149.448 50.9324C149.465 51.1377 148.189 42.2274 141.241 41.5306C130.642 40.4666 130.382 41.0501 129.737 40.3179Z" fill="#3583FF" stroke="#3583FF" stroke-width="0.998274" stroke-miterlimit="1.5" stroke-linecap="round" stroke-linejoin="round"></path><path fill-rule="evenodd" clip-rule="evenodd" d="M46.3182 164.938C46.0885 164.192 43.0629 21.6519 43.0855 20.8375C43.0999 20.3568 90.2818 20.2906 121.711 20.4429C133.077 20.4972 127.229 37.8726 129.796 40.1686C133.058 43.0884 149.079 37.6011 149.09 52.164C149.125 93.889 148.897 163.102 148.83 164.092C148.763 165.067 46.4614 165.403 46.3182 164.938Z" fill="#A1CCFA" stroke="#17171C" stroke-width="2.89408" stroke-miterlimit="1.5" stroke-linecap="round" stroke-linejoin="round"></path><path d="M67.517 123.865C69.351 124.335 111.838 123.888 122.791 123.888" stroke="#17171C" stroke-width="2" stroke-miterlimit="1.5" stroke-linecap="round" stroke-linejoin="round"></path><path d="M67.5946 111.479C69.4286 111.949 111.916 111.502 122.869 111.502" stroke="#17171C" stroke-width="2" stroke-miterlimit="1.5" stroke-linecap="round" stroke-linejoin="round"></path><path d="M67.5352 134.99C69.3692 135.46 111.856 135.013 122.809 135.013" stroke="#17171C" stroke-width="2" stroke-miterlimit="1.5" stroke-linecap="round" stroke-linejoin="round"></path><path d="M40.3984 176.24C46.8224 176.588 85.7464 176.243 97.8814 176.243" stroke="#17171C" stroke-width="2" stroke-miterlimit="1.5" stroke-linecap="round" stroke-linejoin="round"></path><g filter="url(#filter0_d_1313_5138)"><path d="M34.5084 147.983C34.5372 148.582 34.9055 159.061 35.1166 163.442" stroke="#17171C" stroke-width="2" stroke-miterlimit="1.5" stroke-linecap="round" stroke-linejoin="round" shape-rendering="crispEdges"></path></g><path d="M32.0487 80.8501C32.3446 85.5862 34.2675 141.575 34.286 142.022" stroke="#17171C" stroke-width="2" stroke-miterlimit="1.5" stroke-linecap="round" stroke-linejoin="round"></path><path d="M160.567 20.7493C160.496 25.8953 160.181 101.587 160.394 109.469" stroke="#17171C" stroke-width="2" stroke-miterlimit="1.5" stroke-linecap="round" stroke-linejoin="round"></path><path d="M87.0533 57.3617C81.4743 52.4787 67.7063 58.6847 68.2443 73.1297C68.9003 90.7207 84.7743 93.6757 89.2773 87.5337" stroke="#17171C" stroke-width="3" stroke-miterlimit="1.5" stroke-linecap="round" stroke-linejoin="round"></path><path d="M97.9714 56.1338C98.1374 71.0328 106.066 91.7358 110.046 91.7158C114.553 91.6938 122.956 69.2958 122.804 56.1808" stroke="#17171C" stroke-width="3" stroke-miterlimit="1.5" stroke-linecap="round" stroke-linejoin="round"></path></g></g></g><defs><filter id="filter0_d_1313_5138" x="29.5084" y="146.983" width="10.6083" height="25.459" filterUnits="userSpaceOnUse" color-interpolation-filters="sRGB"><feFlood flood-opacity="0" result="BackgroundImageFix"></feFlood><feColorMatrix in="SourceAlpha" type="matrix" values="0 0 0 0 0 0 0 0 0 0 0 0 0 0 0 0 0 0 127 0" result="hardAlpha"></feColorMatrix><feOffset dy="4"></feOffset><feGaussianBlur stdDeviation="2"></feGaussianBlur><feComposite in2="hardAlpha" operator="out"></feComposite><feColorMatrix type="matrix" values="0 0 0 0 0 0 0 0 0 0 0 0 0 0 0 0 0 0 0.25 0"></feColorMatrix><feBlend mode="normal" in2="BackgroundImageFix" result="effect1_dropShadow_1313_5138"></feBlend><feBlend mode="normal" in="SourceGraphic" in2="effect1_dropShadow_1313_5138" result="shape"></feBlend></filter><clipPath id="clip0_1313_5138"><rect width="192" height="192" fill="white"></rect></clipPath><clipPath id="clip1_1313_5138"><rect width="192" height="192" fill="white"></rect></clipPath></defs></svg>